<svg xmlns="http://www.w3.org/2000/svg" viewBox="0 0 220 300" width="220" height="300">
  <rect width="220" height="300" fill="#ffffff" stroke="#d1d5db" stroke-width="1"/>

  <!-- Header -->
  <rect x="10" y="14" width="22" height="22" rx="4" fill="#dbe4f0"/>
  <rect x="188" y="14" width="22" height="22" rx="4" fill="#dbe4f0"/>
  <rect x="40" y="16" width="100" height="8" rx="2" fill="#1e3a5f"/>
  <rect x="60" y="28" width="60" height="4" rx="2" fill="#9aa7b8"/>

  <!-- Title pill -->
  <rect x="60" y="44" width="100" height="14" rx="7" fill="#1e3a5f"/>

  <!-- Student info card -->
  <rect x="10" y="66" width="200" height="42" rx="6" fill="#f5f7fa"/>
  <rect x="18" y="74" width="26" height="26" rx="4" fill="#e3e8ee" stroke="#cfd6df"/>
  <rect x="52" y="78" width="60" height="4" rx="2" fill="#1e3a5f"/>
  <rect x="52" y="86" width="80" height="3" rx="1.5" fill="#9aa7b8"/>
  <rect x="52" y="94" width="70" height="3" rx="1.5" fill="#9aa7b8"/>
  <rect x="140" y="78" width="60" height="4" rx="2" fill="#1e3a5f"/>
  <rect x="140" y="86" width="50" height="3" rx="1.5" fill="#9aa7b8"/>
  <rect x="140" y="94" width="60" height="3" rx="1.5" fill="#9aa7b8"/>

  <!-- Section title -->
  <rect x="10" y="118" width="90" height="9" rx="2" fill="#1e3a5f"/>

  <!-- Table with light rules -->
  <rect x="10" y="130" width="200" height="48" rx="6" fill="#ffffff" stroke="#e9edf2"/>
  <line x1="10" y1="142" x2="210" y2="142" stroke="#e9edf2" stroke-width="1"/>
  <line x1="10" y1="152" x2="210" y2="152" stroke="#e9edf2" stroke-width="1"/>
  <line x1="10" y1="162" x2="210" y2="162" stroke="#e9edf2" stroke-width="1"/>
  <line x1="10" y1="172" x2="210" y2="172" stroke="#e9edf2" stroke-width="1"/>
  <rect x="16" y="134" width="60" height="5" rx="2" fill="#1e3a5f"/>
  <rect x="140" y="134" width="50" height="5" rx="2" fill="#1e3a5f"/>

  <!-- Summary cards -->
  <rect x="10" y="190" width="96" height="46" rx="8" fill="#f5f7fa"/>
  <rect x="112" y="190" width="44" height="46" rx="8" fill="#f5f7fa"/>
  <rect x="162" y="190" width="48" height="46" rx="8" fill="#f5f7fa"/>
  <rect x="18" y="198" width="50" height="5" rx="2" fill="#1e3a5f"/>
  <rect x="120" y="198" width="32" height="5" rx="2" fill="#1e3a5f"/>
  <rect x="170" y="198" width="36" height="5" rx="2" fill="#1e3a5f"/>
  <rect x="170" y="222" width="36" height="9" rx="12" fill="#e3e8ee" stroke="#1e3a5f" stroke-width="1"/>

  <!-- Signature -->
  <line x1="20" y1="270" x2="90" y2="270" stroke="#9aa7b8" stroke-width="1"/>
  <line x1="100" y1="270" x2="170" y2="270" stroke="#9aa7b8" stroke-width="1"/>
  <line x1="180" y1="270" x2="200" y2="270" stroke="#9aa7b8" stroke-width="1"/>

  <text x="110" y="290" font-family="Segoe UI, Arial, sans-serif" font-size="11" font-weight="bold" fill="#1e3a5f" text-anchor="middle">MODERN</text>
</svg>
